<?xml version="1.0" standalone="no"?><!DOCTYPE svg PUBLIC "-//W3C//DTD SVG 1.1//EN" "http://www.w3.org/Graphics/SVG/1.1/DTD/svg11.dtd"><svg t="1530858562640" class="icon" style="" viewBox="0 0 1024 1024" version="1.1" xmlns="http://www.w3.org/2000/svg" p-id="1455" xmlns:xlink="http://www.w3.org/1999/xlink" width="200" height="200"><defs><style type="text/css"></style></defs><path d="M752.96 316.608C699.648 222.144 600.32 163.84 491.2 163.84c-72.64 0-142.72 26.304-197.44 74.048C244.096 281.216 210.176 339.456 196.992 403.456 118.912 425.984 64 497.728 64 580.416c0 91.648 68.096 168.576 156.352 182.08l0 2.176 515.904 0c123.776 0 224.384-100.608 224.384-224.384C960.704 422.208 868.864 325.184 752.96 316.608L752.96 316.608zM736.32 713.216 248.192 713.216l-1.728-0.128c-72.192-0.896-130.944-60.288-130.944-132.608 0-64.064 45.632-118.912 108.544-130.496l18.176-3.392 2.688-18.304c8.448-58.624 37.824-112.448 82.688-151.68 45.312-39.552 103.36-61.312 163.584-61.312 81.664 0 156.672 39.424 203.008 104.704C639.488 330.624 589.824 361.28 556.096 406.656 547.584 418.048 549.952 434.176 561.472 442.688c11.392 8.448 27.52 6.08 36.032-5.312 33.024-44.416 83.648-69.952 138.816-69.952 95.296 0 172.864 77.504 172.864 172.864C909.184 635.648 831.616 713.216 736.32 713.216z" p-id="1456"></path></svg>